# xmcd CD database file
#
# Track frame offsets:
#	151
#	4715
#	25092
#	45099
#	69739
#	86726
#	108366
#	126333
#	147787
#	162805
#	189483
#	201621
#	223363
#	240108
#
# Disc length: 3892 seconds
#
# Revision: 0
# Processed by: cddbd v1.5.1PL2 Copyright (c) Steve Scherf et al.
# Submitted via: CDex 1.51
#
DISCID=be0f320e
DTITLE=Uchpa - Qukman Muskiy
DYEAR=1900
DGENRE=Blues
TTITLE0=Yaykumunan
TTITLE1=Ananao
TTITLE2=Corazon Contento
TTITLE3=Manankutimusaqchu
TTITLE4=Miskillañam Kani
TTITLE5=Warmi Kuyay
TTITLE6=Añas Blues
TTITLE7=Chachaschay
TTITLE8=Pitaqmi Kanki?
TTITLE9=Yanapaway Yuksimuyta
TTITLE10=Blucky Mamay
TTITLE11=Kusi Kusun
TTITLE12=Manañachiki Qawasqayki
TTITLE13=Uchpa - Video Clip
EXTD=
EXTT0=
EXTT1=
EXTT2=
EXTT3=
EXTT4=
EXTT5=
EXTT6=
EXTT7=
EXTT8=
EXTT9=
EXTT10=
EXTT11=
EXTT12=
EXTT13=
PLAYORDER=
